<mxfile host="app.diagrams.net" modified="2021-11-22T09:38:23.092Z" agent="5.0 (Windows NT 10.0; Win64; x64) AppleWebKit/537.36 (KHTML, like Gecko) Chrome/96.0.4664.45 Safari/537.36" etag="22cR8CoeOMp1lGJlU1Za" version="15.8.3" type="github">
  <diagram name="Page-1" id="c7488fd3-1785-93aa-aadb-54a6760d102a">
    <mxGraphModel dx="1185" dy="635" grid="1" gridSize="10" guides="1" tooltips="1" connect="1" arrows="1" fold="1" page="1" pageScale="1" pageWidth="1100" pageHeight="850" background="none" math="0" shadow="0">
      <root>
        <mxCell id="0" />
        <mxCell id="1" parent="0" />
        <mxCell id="3R5PBibsWdxitljuvBNu-2" value="云杉" style="shape=umlLifeline;perimeter=lifelinePerimeter;whiteSpace=wrap;html=1;container=1;collapsible=0;recursiveResize=0;outlineConnect=0;" vertex="1" parent="1">
          <mxGeometry x="290" y="120" width="60" height="480" as="geometry" />
        </mxCell>
        <mxCell id="3R5PBibsWdxitljuvBNu-3" value="baas" style="shape=umlLifeline;perimeter=lifelinePerimeter;whiteSpace=wrap;html=1;container=1;collapsible=0;recursiveResize=0;outlineConnect=0;" vertex="1" parent="1">
          <mxGeometry x="800" y="140" width="100" height="460" as="geometry" />
        </mxCell>
        <mxCell id="3R5PBibsWdxitljuvBNu-7" value="" style="line;strokeWidth=2;direction=south;html=1;" vertex="1" parent="1">
          <mxGeometry x="450" y="100" width="10" height="820" as="geometry" />
        </mxCell>
        <mxCell id="3R5PBibsWdxitljuvBNu-8" value="" style="line;strokeWidth=2;direction=south;html=1;" vertex="1" parent="1">
          <mxGeometry x="720" y="70" width="10" height="710" as="geometry" />
        </mxCell>
        <mxCell id="3R5PBibsWdxitljuvBNu-9" value="" style="line;strokeWidth=2;direction=south;html=1;" vertex="1" parent="1">
          <mxGeometry x="220" y="80" width="10" height="610" as="geometry" />
        </mxCell>
        <mxCell id="3R5PBibsWdxitljuvBNu-10" value="user" style="shape=umlActor;verticalLabelPosition=bottom;verticalAlign=top;html=1;outlineConnect=0;" vertex="1" parent="1">
          <mxGeometry x="40" y="310" width="60" height="270" as="geometry" />
        </mxCell>
        <mxCell id="3R5PBibsWdxitljuvBNu-11" value="1.选择登录方式" style="html=1;verticalAlign=bottom;endArrow=block;rounded=0;" edge="1" parent="1">
          <mxGeometry width="80" relative="1" as="geometry">
            <mxPoint x="140" y="320" as="sourcePoint" />
            <mxPoint x="609.5" y="320" as="targetPoint" />
          </mxGeometry>
        </mxCell>
        <mxCell id="3R5PBibsWdxitljuvBNu-12" value="2.return&amp;nbsp; token绑定登录方式" style="html=1;verticalAlign=bottom;endArrow=open;dashed=1;rounded=0;" edge="1" parent="1">
          <mxGeometry relative="1" as="geometry">
            <mxPoint x="609.5" y="360" as="sourcePoint" />
            <mxPoint x="140" y="360" as="targetPoint" />
          </mxGeometry>
        </mxCell>
        <mxCell id="3R5PBibsWdxitljuvBNu-20" value="auth" style="shape=umlLifeline;perimeter=lifelinePerimeter;whiteSpace=wrap;html=1;container=1;collapsible=0;recursiveResize=0;outlineConnect=0;" vertex="1" parent="1">
          <mxGeometry x="560" y="140" width="100" height="450" as="geometry" />
        </mxCell>
        <mxCell id="3R5PBibsWdxitljuvBNu-22" value="3.携带token访问云杉登录界面" style="html=1;verticalAlign=bottom;endArrow=block;rounded=0;" edge="1" parent="1">
          <mxGeometry width="80" relative="1" as="geometry">
            <mxPoint x="130" y="440" as="sourcePoint" />
            <mxPoint x="319.5" y="440" as="targetPoint" />
          </mxGeometry>
        </mxCell>
        <mxCell id="3R5PBibsWdxitljuvBNu-28" value="&lt;span style=&quot;font-size: 11px ; background-color: rgb(255 , 255 , 255)&quot;&gt;4.云杉转发到auth服务，auth确认token是否还在有效期&lt;/span&gt;" style="text;html=1;align=center;verticalAlign=middle;resizable=0;points=[];autosize=1;strokeColor=none;fillColor=none;" vertex="1" parent="1">
          <mxGeometry x="330" y="450" width="310" height="20" as="geometry" />
        </mxCell>
        <mxCell id="3R5PBibsWdxitljuvBNu-30" value="" style="endArrow=open;endFill=1;endSize=12;html=1;rounded=0;" edge="1" parent="1" source="3R5PBibsWdxitljuvBNu-2">
          <mxGeometry width="160" relative="1" as="geometry">
            <mxPoint x="430" y="480" as="sourcePoint" />
            <mxPoint x="590" y="480" as="targetPoint" />
          </mxGeometry>
        </mxCell>
        <mxCell id="3R5PBibsWdxitljuvBNu-33" value="" style="endArrow=open;endFill=1;endSize=12;html=1;rounded=0;" edge="1" parent="1" source="3R5PBibsWdxitljuvBNu-20">
          <mxGeometry width="160" relative="1" as="geometry">
            <mxPoint x="670" y="490" as="sourcePoint" />
            <mxPoint x="830" y="490" as="targetPoint" />
          </mxGeometry>
        </mxCell>
        <mxCell id="3R5PBibsWdxitljuvBNu-34" value="5.不存在创建 存在颁发jwtToken" style="text;html=1;align=center;verticalAlign=middle;resizable=0;points=[];autosize=1;strokeColor=none;fillColor=none;" vertex="1" parent="1">
          <mxGeometry x="635" y="470" width="180" height="20" as="geometry" />
        </mxCell>
        <mxCell id="3R5PBibsWdxitljuvBNu-35" value="6.return jwtToken" style="html=1;verticalAlign=bottom;endArrow=open;dashed=1;endSize=8;rounded=0;" edge="1" parent="1">
          <mxGeometry relative="1" as="geometry">
            <mxPoint x="840" y="560" as="sourcePoint" />
            <mxPoint x="140" y="560" as="targetPoint" />
          </mxGeometry>
        </mxCell>
      </root>
    </mxGraphModel>
  </diagram>
</mxfile>
